<?xml version="1.0" encoding="UTF-8"?>
<svg width="204px" height="204px" viewBox="0 0 204 204" version="1.1" xmlns="http://www.w3.org/2000/svg" xmlns:xlink="http://www.w3.org/1999/xlink">
    <title>Artboard</title>
    <g id="Artboard" stroke="none" stroke-width="1" fill="none" fill-rule="evenodd">
        <rect fill="#2C3E50" x="0" y="0" width="204" height="204"></rect>
        <g id="The_University_of_California_1868" transform="translate(-0.120609, -0.100000)">
            <path d="M102.120609,202.1 C157.349084,202.1 202.120609,157.328475 202.120609,102.1 C202.120609,96.4234404 201.647625,90.8573521 200.738918,85.4389953 C192.806616,38.1409872 151.672524,2.1 102.120609,2.1 C46.8921338,2.1 2.12060878,46.871525 2.12060878,102.1 C2.12060878,157.328475 46.8921338,202.1 102.120609,202.1 Z" id="Oval" fill-opacity="0" fill="#FFFFFF" fill-rule="nonzero"></path>
            <circle id="Oval" fill="#FFFFFF" fill-rule="nonzero" cx="102.120609" cy="202.1" r="2.1"></circle>
            <circle id="Oval" fill="#FFFFFF" fill-rule="nonzero" transform="translate(97.131040, 201.975443) rotate(2.860000) translate(-97.131040, -201.975443) " cx="97.1310398" cy="201.975443" r="2.1"></circle>
            <circle id="Oval" fill="#FFFFFF" fill-rule="nonzero" transform="translate(92.171267, 201.603822) rotate(5.710000) translate(-92.171267, -201.603822) " cx="92.171267" cy="201.603822" r="2.1"></circle>
            <circle id="Oval" fill="#FFFFFF" fill-rule="nonzero" transform="translate(87.218848, 200.983454) rotate(8.570000) translate(-87.218848, -200.983454) " cx="87.2188476" cy="200.983454" r="2.1"></circle>
            <circle id="Oval" fill="#FFFFFF" fill-rule="nonzero" transform="translate(82.303551, 200.116755) rotate(11.430000) translate(-82.303551, -200.116755) " cx="82.3035506" cy="200.116755" r="2.1"></circle>
            <circle id="Oval" fill="#FFFFFF" fill-rule="nonzero" transform="translate(77.437620, 199.005883) rotate(14.290000) translate(-77.437620, -199.005883) " cx="77.4376204" cy="199.005883" r="2.1"></circle>
            <circle id="Oval" fill="#FFFFFF" fill-rule="nonzero" transform="translate(72.649856, 197.658750) rotate(17.140000) translate(-72.649856, -197.658750) " cx="72.6498565" cy="197.65875" r="2.1"></circle>
            <circle id="Oval" fill="#FFFFFF" fill-rule="nonzero" transform="translate(67.918594, 196.069262) rotate(20.000000) translate(-67.918594, -196.069262) " cx="67.9185944" cy="196.069262" r="2.1"></circle>
            <circle id="Oval" fill="#FFFFFF" fill-rule="nonzero" transform="translate(63.272534, 194.245684) rotate(22.860000) translate(-63.272534, -194.245684) " cx="63.2725341" cy="194.245684" r="2.1"></circle>
            <circle id="Oval" fill="#FFFFFF" fill-rule="nonzero" transform="translate(58.738974, 192.200132) rotate(25.710000) translate(-58.738974, -192.200132) " cx="58.7389742" cy="192.200132" r="2.1"></circle>
            <circle id="Oval" fill="#FFFFFF" fill-rule="nonzero" transform="translate(54.297401, 189.923350) rotate(28.570000) translate(-54.297401, -189.923350) " cx="54.2974006" cy="189.92335" r="2.1"></circle>
            <circle id="Oval" fill="#FFFFFF" fill-rule="nonzero" transform="translate(49.974961, 187.427788) rotate(31.430000) translate(-49.974961, -187.427788) " cx="49.9749609" cy="187.427788" r="2.1"></circle>
            <circle id="Oval" fill="#FFFFFF" fill-rule="nonzero" transform="translate(45.782423, 184.719664) rotate(34.290000) translate(-45.782423, -184.719664) " cx="45.7824229" cy="184.719664" r="2.1"></circle>
            <circle id="Oval" fill="#FFFFFF" fill-rule="nonzero" transform="translate(41.744143, 181.816262) rotate(37.140000) translate(-41.744143, -181.816262) " cx="41.7441428" cy="181.816262" r="2.1"></circle>
            <circle id="Oval" fill="#FFFFFF" fill-rule="nonzero" transform="translate(37.841848, 178.704444) rotate(40.000000) translate(-37.841848, -178.704444) " cx="37.8418478" cy="178.704444" r="2.1"></circle>
            <circle id="Oval" fill="#FFFFFF" fill-rule="nonzero" transform="translate(34.099680, 175.401795) rotate(42.860000) translate(-34.099680, -175.401795) " cx="34.0996796" cy="175.401795" r="2.1"></circle>
            <circle id="Oval" fill="#FFFFFF" fill-rule="nonzero" transform="translate(30.539147, 171.929036) rotate(45.710000) translate(-30.539147, -171.929036) " cx="30.5391469" cy="171.929036" r="2.1"></circle>
            <circle id="Oval" fill="#FFFFFF" fill-rule="nonzero" transform="translate(27.144138, 168.270453) rotate(48.570000) translate(-27.144138, -168.270453) " cx="27.1441383" cy="168.270453" r="2.1"></circle>
            <circle id="Oval" fill="#FFFFFF" fill-rule="nonzero" transform="translate(23.935906, 164.447031) rotate(51.430000) translate(-23.935906, -164.447031) " cx="23.935906" cy="164.447031" r="2.1"></circle>
            <circle id="Oval" fill="#FFFFFF" fill-rule="nonzero" transform="translate(20.922442, 160.468294) rotate(54.290000) translate(-20.922442, -160.468294) " cx="20.922442" cy="160.468294" r="2.1"></circle>
            <circle id="Oval" fill="#FFFFFF" fill-rule="nonzero" transform="translate(18.120722, 156.358815) rotate(57.140000) translate(-18.120722, -156.358815) " cx="18.1207221" cy="156.358815" r="2.1"></circle>
            <circle id="Oval" fill="#FFFFFF" fill-rule="nonzero" transform="translate(15.518068, 152.100000) rotate(60.000000) translate(-15.518068, -152.100000) " cx="15.5180684" cy="152.1" r="2.1"></circle>
            <circle id="Oval" fill="#FFFFFF" fill-rule="nonzero" transform="translate(13.131153, 147.716628) rotate(62.860000) translate(-13.131153, -147.716628) " cx="13.131153" cy="147.716628" r="2.1"></circle>
            <circle id="Oval" fill="#FFFFFF" fill-rule="nonzero" transform="translate(10.973100, 143.235528) rotate(65.710000) translate(-10.973100, -143.235528) " cx="10.9731002" cy="143.235528" r="2.1"></circle>
            <circle id="Oval" fill="#FFFFFF" fill-rule="nonzero" transform="translate(9.034145, 138.636423) rotate(68.570000) translate(-9.034145, -138.636423) " cx="9.03414486" cy="138.636423" r="2.1"></circle>
            <circle id="Oval" fill="#FFFFFF" fill-rule="nonzero" transform="translate(7.327080, 133.946302) rotate(71.430000) translate(-7.327080, -133.946302) " cx="7.3270801" cy="133.946302" r="2.1"></circle>
            <circle id="Oval" fill="#FFFFFF" fill-rule="nonzero" transform="translate(5.856158, 129.176846) rotate(74.290000) translate(-5.856158, -129.176846) " cx="5.85615847" cy="129.176846" r="2.1"></circle>
            <circle id="Oval" fill="#FFFFFF" fill-rule="nonzero" transform="translate(4.628927, 124.356955) rotate(77.140000) translate(-4.628927, -124.356955) " cx="4.62892732" cy="124.356955" r="2.1"></circle>
            <circle id="Oval" fill="#FFFFFF" fill-rule="nonzero" transform="translate(3.639833, 119.464818) rotate(80.000000) translate(-3.639833, -119.464818) " cx="3.63983348" cy="119.464818" r="2.1"></circle>
            <circle id="Oval" fill="#FFFFFF" fill-rule="nonzero" transform="translate(2.896068, 114.529422) rotate(82.860000) translate(-2.896068, -114.529422) " cx="2.89606819" cy="114.529422" r="2.1"></circle>
            <circle id="Oval" fill="#FFFFFF" fill-rule="nonzero" transform="translate(2.400788, 109.580468) rotate(85.710000) translate(-2.400788, -109.580468) " cx="2.40078832" cy="109.580468" r="2.1"></circle>
            <circle id="Oval" fill="#FFFFFF" fill-rule="nonzero" transform="translate(2.151753, 104.595562) rotate(88.570000) translate(-2.151753, -104.595562) " cx="2.15175277" cy="104.595562" r="2.1"></circle>
            <circle id="Oval" fill="#FFFFFF" fill-rule="nonzero" transform="translate(2.151753, 99.604438) rotate(91.430000) translate(-2.151753, -99.604438) " cx="2.15175277" cy="99.6044383" r="2.1"></circle>
            <circle id="Oval" fill="#FFFFFF" fill-rule="nonzero" transform="translate(2.400788, 94.619532) rotate(94.290000) translate(-2.400788, -94.619532) " cx="2.40078832" cy="94.6195316" r="2.1"></circle>
            <circle id="Oval" fill="#FFFFFF" fill-rule="nonzero" transform="translate(2.896068, 89.670578) rotate(97.140000) translate(-2.896068, -89.670578) " cx="2.89606819" cy="89.6705775" r="2.1"></circle>
            <circle id="Oval" fill="#FFFFFF" fill-rule="nonzero" transform="translate(3.639833, 84.735182) rotate(100.000000) translate(-3.639833, -84.735182) " cx="3.63983348" cy="84.7351822" r="2.1"></circle>
            <circle id="Oval" fill="#FFFFFF" fill-rule="nonzero" transform="translate(4.628927, 79.843045) rotate(102.860000) translate(-4.628927, -79.843045) " cx="4.62892732" cy="79.843045" r="2.1"></circle>
            <circle id="Oval" fill="#FFFFFF" fill-rule="nonzero" transform="translate(5.856158, 75.023154) rotate(105.710000) translate(-5.856158, -75.023154) " cx="5.85615847" cy="75.0231537" r="2.1"></circle>
            <circle id="Oval" fill="#FFFFFF" fill-rule="nonzero" transform="translate(7.327080, 70.253698) rotate(108.570000) translate(-7.327080, -70.253698) " cx="7.3270801" cy="70.2536985" r="2.1"></circle>
            <circle id="Oval" fill="#FFFFFF" fill-rule="nonzero" transform="translate(9.034145, 65.563577) rotate(111.430000) translate(-9.034145, -65.563577) " cx="9.03414486" cy="65.5635766" r="2.1"></circle>
            <circle id="Oval" fill="#FFFFFF" fill-rule="nonzero" transform="translate(10.973100, 60.964472) rotate(114.290000) translate(-10.973100, -60.964472) " cx="10.9731002" cy="60.9644718" r="2.1"></circle>
            <circle id="Oval" fill="#FFFFFF" fill-rule="nonzero" transform="translate(13.131153, 56.483372) rotate(117.140000) translate(-13.131153, -56.483372) " cx="13.131153" cy="56.4833718" r="2.1"></circle>
            <circle id="Oval" fill="#FFFFFF" fill-rule="nonzero" transform="translate(15.518068, 52.100000) rotate(120.000000) translate(-15.518068, -52.100000) " cx="15.5180684" cy="52.1" r="2.1"></circle>
            <circle id="Oval" fill="#FFFFFF" fill-rule="nonzero" transform="translate(18.120722, 47.841185) rotate(122.860000) translate(-18.120722, -47.841185) " cx="18.1207221" cy="47.8411848" r="2.1"></circle>
            <circle id="Oval" fill="#FFFFFF" fill-rule="nonzero" transform="translate(20.922442, 43.731706) rotate(125.710000) translate(-20.922442, -43.731706) " cx="20.922442" cy="43.7317062" r="2.1"></circle>
            <circle id="Oval" fill="#FFFFFF" fill-rule="nonzero" transform="translate(23.935906, 39.752969) rotate(128.570000) translate(-23.935906, -39.752969) " cx="23.935906" cy="39.7529692" r="2.1"></circle>
            <circle id="Oval" fill="#FFFFFF" fill-rule="nonzero" transform="translate(27.144138, 35.929547) rotate(131.430000) translate(-27.144138, -35.929547) " cx="27.1441383" cy="35.9295468" r="2.1"></circle>
            <circle id="Oval" fill="#FFFFFF" fill-rule="nonzero" transform="translate(30.539147, 32.270964) rotate(134.290000) translate(-30.539147, -32.270964) " cx="30.5391469" cy="32.2709637" r="2.1"></circle>
            <circle id="Oval" fill="#FFFFFF" fill-rule="nonzero" transform="translate(34.099680, 28.798205) rotate(137.140000) translate(-34.099680, -28.798205) " cx="34.0996796" cy="28.7982047" r="2.1"></circle>
            <circle id="Oval" fill="#FFFFFF" fill-rule="nonzero" transform="translate(37.841848, 25.495556) rotate(140.000000) translate(-37.841848, -25.495556) " cx="37.8418478" cy="25.4955557" r="2.1"></circle>
            <circle id="Oval" fill="#FFFFFF" fill-rule="nonzero" transform="translate(41.744143, 22.383738) rotate(142.860000) translate(-41.744143, -22.383738) " cx="41.7441428" cy="22.3837384" r="2.1"></circle>
            <circle id="Oval" fill="#FFFFFF" fill-rule="nonzero" transform="translate(45.782423, 19.480336) rotate(145.710000) translate(-45.782423, -19.480336) " cx="45.7824229" cy="19.4803364" r="2.1"></circle>
            <circle id="Oval" fill="#FFFFFF" fill-rule="nonzero" transform="translate(49.974961, 16.772212) rotate(148.570000) translate(-49.974961, -16.772212) " cx="49.9749609" cy="16.772212" r="2.1"></circle>
            <circle id="Oval" fill="#FFFFFF" fill-rule="nonzero" transform="translate(54.297401, 14.276650) rotate(151.430000) translate(-54.297401, -14.276650) " cx="54.2974006" cy="14.2766502" r="2.1"></circle>
            <circle id="Oval" fill="#FFFFFF" fill-rule="nonzero" transform="translate(58.738974, 11.999868) rotate(154.290000) translate(-58.738974, -11.999868) " cx="58.7389742" cy="11.999868" r="2.1"></circle>
            <circle id="Oval" fill="#FFFFFF" fill-rule="nonzero" transform="translate(63.272534, 9.954316) rotate(157.140000) translate(-63.272534, -9.954316) " cx="63.2725341" cy="9.95431592" r="2.1"></circle>
            <circle id="Oval" fill="#FFFFFF" fill-rule="nonzero" transform="translate(67.918594, 8.130738) rotate(160.000000) translate(-67.918594, -8.130738) " cx="67.9185944" cy="8.13073792" r="2.1"></circle>
            <circle id="Oval" fill="#FFFFFF" fill-rule="nonzero" transform="translate(72.649856, 6.541250) rotate(162.860000) translate(-72.649856, -6.541250) " cx="72.6498565" cy="6.5412497" r="2.1"></circle>
            <circle id="Oval" fill="#FFFFFF" fill-rule="nonzero" transform="translate(77.437620, 5.194117) rotate(165.710000) translate(-77.437620, -5.194117) " cx="77.4376204" cy="5.19411739" r="2.1"></circle>
            <circle id="Oval" fill="#FFFFFF" fill-rule="nonzero" transform="translate(82.303551, 4.083245) rotate(168.570000) translate(-82.303551, -4.083245) " cx="82.3035506" cy="4.08324529" r="2.1"></circle>
            <circle id="Oval" fill="#FFFFFF" fill-rule="nonzero" transform="translate(87.218848, 3.216546) rotate(171.430000) translate(-87.218848, -3.216546) " cx="87.2188476" cy="3.2165458" r="2.1"></circle>
            <circle id="Oval" fill="#FFFFFF" fill-rule="nonzero" transform="translate(92.171267, 2.596178) rotate(174.290000) translate(-92.171267, -2.596178) " cx="92.171267" cy="2.59617798" r="2.1"></circle>
            <circle id="Oval" fill="#FFFFFF" fill-rule="nonzero" transform="translate(97.131040, 2.224557) rotate(177.140000) translate(-97.131040, -2.224557) " cx="97.1310398" cy="2.22455657" r="2.1"></circle>
            <circle id="Oval" fill="#FFFFFF" fill-rule="nonzero" transform="translate(102.120609, 2.100000) rotate(180.000000) translate(-102.120609, -2.100000) " cx="102.120609" cy="2.1" r="2.1"></circle>
            <circle id="Oval" fill="#FFFFFF" fill-rule="nonzero" transform="translate(107.110178, 2.224557) rotate(-177.140000) translate(-107.110178, -2.224557) " cx="107.110178" cy="2.22455657" r="2.1"></circle>
            <circle id="Oval" fill="#FFFFFF" fill-rule="nonzero" transform="translate(112.069951, 2.596178) rotate(-174.290000) translate(-112.069951, -2.596178) " cx="112.069951" cy="2.59617798" r="2.1"></circle>
            <circle id="Oval" fill="#FFFFFF" fill-rule="nonzero" transform="translate(117.022370, 3.216546) rotate(-171.430000) translate(-117.022370, -3.216546) " cx="117.02237" cy="3.2165458" r="2.1"></circle>
            <circle id="Oval" fill="#FFFFFF" fill-rule="nonzero" transform="translate(121.937667, 4.083245) rotate(-168.570000) translate(-121.937667, -4.083245) " cx="121.937667" cy="4.08324529" r="2.1"></circle>
            <circle id="Oval" fill="#FFFFFF" fill-rule="nonzero" transform="translate(126.803597, 5.194117) rotate(-165.710000) translate(-126.803597, -5.194117) " cx="126.803597" cy="5.19411739" r="2.1"></circle>
            <circle id="Oval" fill="#FFFFFF" fill-rule="nonzero" transform="translate(131.591361, 6.541250) rotate(-162.860000) translate(-131.591361, -6.541250) " cx="131.591361" cy="6.5412497" r="2.1"></circle>
            <circle id="Oval" fill="#FFFFFF" fill-rule="nonzero" transform="translate(136.322623, 8.130738) rotate(-160.000000) translate(-136.322623, -8.130738) " cx="136.322623" cy="8.13073792" r="2.1"></circle>
            <circle id="Oval" fill="#FFFFFF" fill-rule="nonzero" transform="translate(140.968683, 9.954316) rotate(-157.140000) translate(-140.968683, -9.954316) " cx="140.968683" cy="9.95431592" r="2.1"></circle>
            <circle id="Oval" fill="#FFFFFF" fill-rule="nonzero" transform="translate(145.502243, 11.999868) rotate(-154.290000) translate(-145.502243, -11.999868) " cx="145.502243" cy="11.999868" r="2.1"></circle>
            <circle id="Oval" fill="#FFFFFF" fill-rule="nonzero" transform="translate(149.943817, 14.276650) rotate(-151.430000) translate(-149.943817, -14.276650) " cx="149.943817" cy="14.2766502" r="2.1"></circle>
            <circle id="Oval" fill="#FFFFFF" fill-rule="nonzero" transform="translate(154.266257, 16.772212) rotate(-148.570000) translate(-154.266257, -16.772212) " cx="154.266257" cy="16.772212" r="2.1"></circle>
            <circle id="Oval" fill="#FFFFFF" fill-rule="nonzero" transform="translate(158.458795, 19.480336) rotate(-145.710000) translate(-158.458795, -19.480336) " cx="158.458795" cy="19.4803364" r="2.1"></circle>
            <circle id="Oval" fill="#FFFFFF" fill-rule="nonzero" transform="translate(162.497075, 22.383738) rotate(-142.860000) translate(-162.497075, -22.383738) " cx="162.497075" cy="22.3837384" r="2.1"></circle>
            <circle id="Oval" fill="#FFFFFF" fill-rule="nonzero" transform="translate(166.399370, 25.495556) rotate(-140.000000) translate(-166.399370, -25.495556) " cx="166.39937" cy="25.4955557" r="2.1"></circle>
            <circle id="Oval" fill="#FFFFFF" fill-rule="nonzero" transform="translate(170.141538, 28.798205) rotate(-137.140000) translate(-170.141538, -28.798205) " cx="170.141538" cy="28.7982047" r="2.1"></circle>
            <circle id="Oval" fill="#FFFFFF" fill-rule="nonzero" transform="translate(173.702071, 32.270964) rotate(-134.290000) translate(-173.702071, -32.270964) " cx="173.702071" cy="32.2709637" r="2.1"></circle>
            <circle id="Oval" fill="#FFFFFF" fill-rule="nonzero" transform="translate(177.097079, 35.929547) rotate(-131.430000) translate(-177.097079, -35.929547) " cx="177.097079" cy="35.9295468" r="2.1"></circle>
            <circle id="Oval" fill="#FFFFFF" fill-rule="nonzero" transform="translate(180.305312, 39.752969) rotate(-128.570000) translate(-180.305312, -39.752969) " cx="180.305312" cy="39.7529692" r="2.1"></circle>
            <circle id="Oval" fill="#FFFFFF" fill-rule="nonzero" transform="translate(183.318776, 43.731706) rotate(-125.710000) translate(-183.318776, -43.731706) " cx="183.318776" cy="43.7317062" r="2.1"></circle>
            <circle id="Oval" fill="#FFFFFF" fill-rule="nonzero" transform="translate(186.120496, 47.841185) rotate(-122.860000) translate(-186.120496, -47.841185) " cx="186.120496" cy="47.8411848" r="2.1"></circle>
            <circle id="Oval" fill="#FFFFFF" fill-rule="nonzero" transform="translate(188.723149, 52.100000) rotate(-120.000000) translate(-188.723149, -52.100000) " cx="188.723149" cy="52.1" r="2.1"></circle>
            <circle id="Oval" fill="#FFFFFF" fill-rule="nonzero" transform="translate(191.110065, 56.483372) rotate(-117.140000) translate(-191.110065, -56.483372) " cx="191.110065" cy="56.4833718" r="2.1"></circle>
            <circle id="Oval" fill="#FFFFFF" fill-rule="nonzero" transform="translate(193.268117, 60.964472) rotate(-114.290000) translate(-193.268117, -60.964472) " cx="193.268117" cy="60.9644718" r="2.1"></circle>
            <circle id="Oval" fill="#FFFFFF" fill-rule="nonzero" transform="translate(195.207073, 65.563577) rotate(-111.430000) translate(-195.207073, -65.563577) " cx="195.207073" cy="65.5635766" r="2.1"></circle>
            <circle id="Oval" fill="#FFFFFF" fill-rule="nonzero" transform="translate(196.914137, 70.253698) rotate(-108.570000) translate(-196.914137, -70.253698) " cx="196.914137" cy="70.2536985" r="2.1"></circle>
            <circle id="Oval" fill="#FFFFFF" fill-rule="nonzero" transform="translate(198.385059, 75.023154) rotate(-105.710000) translate(-198.385059, -75.023154) " cx="198.385059" cy="75.0231537" r="2.1"></circle>
            <circle id="Oval" fill="#FFFFFF" fill-rule="nonzero" transform="translate(199.612290, 79.843045) rotate(-102.860000) translate(-199.612290, -79.843045) " cx="199.61229" cy="79.843045" r="2.1"></circle>
            <circle id="Oval" fill="#FFFFFF" fill-rule="nonzero" transform="translate(200.601384, 84.735182) rotate(-100.000000) translate(-200.601384, -84.735182) " cx="200.601384" cy="84.7351822" r="2.1"></circle>
            <circle id="Oval" fill="#FFFFFF" fill-rule="nonzero" transform="translate(201.345149, 89.670578) rotate(-97.140000) translate(-201.345149, -89.670578) " cx="201.345149" cy="89.6705775" r="2.1"></circle>
            <circle id="Oval" fill="#FFFFFF" fill-rule="nonzero" transform="translate(201.840429, 94.619532) rotate(-94.290000) translate(-201.840429, -94.619532) " cx="201.840429" cy="94.6195316" r="2.1"></circle>
            <circle id="Oval" fill="#FFFFFF" fill-rule="nonzero" transform="translate(202.089465, 99.604438) rotate(-91.430000) translate(-202.089465, -99.604438) " cx="202.089465" cy="99.6044383" r="2.1"></circle>
            <circle id="Oval" fill="#FFFFFF" fill-rule="nonzero" transform="translate(202.089465, 104.595562) rotate(-88.570000) translate(-202.089465, -104.595562) " cx="202.089465" cy="104.595562" r="2.1"></circle>
            <circle id="Oval" fill="#FFFFFF" fill-rule="nonzero" transform="translate(201.840429, 109.580468) rotate(-85.710000) translate(-201.840429, -109.580468) " cx="201.840429" cy="109.580468" r="2.1"></circle>
            <circle id="Oval" fill="#FFFFFF" fill-rule="nonzero" transform="translate(201.345149, 114.529422) rotate(-82.860000) translate(-201.345149, -114.529422) " cx="201.345149" cy="114.529422" r="2.1"></circle>
            <circle id="Oval" fill="#FFFFFF" fill-rule="nonzero" transform="translate(200.601384, 119.464818) rotate(-80.000000) translate(-200.601384, -119.464818) " cx="200.601384" cy="119.464818" r="2.1"></circle>
            <circle id="Oval" fill="#FFFFFF" fill-rule="nonzero" transform="translate(199.612290, 124.356955) rotate(-77.140000) translate(-199.612290, -124.356955) " cx="199.61229" cy="124.356955" r="2.1"></circle>
            <circle id="Oval" fill="#FFFFFF" fill-rule="nonzero" transform="translate(198.385059, 129.176846) rotate(-74.290000) translate(-198.385059, -129.176846) " cx="198.385059" cy="129.176846" r="2.1"></circle>
            <circle id="Oval" fill="#FFFFFF" fill-rule="nonzero" transform="translate(196.914137, 133.946302) rotate(-71.430000) translate(-196.914137, -133.946302) " cx="196.914137" cy="133.946302" r="2.1"></circle>
            <circle id="Oval" fill="#FFFFFF" fill-rule="nonzero" transform="translate(195.207073, 138.636423) rotate(-68.570000) translate(-195.207073, -138.636423) " cx="195.207073" cy="138.636423" r="2.1"></circle>
            <circle id="Oval" fill="#FFFFFF" fill-rule="nonzero" transform="translate(193.268117, 143.235528) rotate(-65.710000) translate(-193.268117, -143.235528) " cx="193.268117" cy="143.235528" r="2.1"></circle>
            <circle id="Oval" fill="#FFFFFF" fill-rule="nonzero" transform="translate(191.110065, 147.716628) rotate(-62.860000) translate(-191.110065, -147.716628) " cx="191.110065" cy="147.716628" r="2.1"></circle>
            <circle id="Oval" fill="#FFFFFF" fill-rule="nonzero" transform="translate(188.723149, 152.100000) rotate(-60.000000) translate(-188.723149, -152.100000) " cx="188.723149" cy="152.1" r="2.1"></circle>
            <circle id="Oval" fill="#FFFFFF" fill-rule="nonzero" transform="translate(186.120496, 156.358815) rotate(-57.140000) translate(-186.120496, -156.358815) " cx="186.120496" cy="156.358815" r="2.1"></circle>
            <circle id="Oval" fill="#FFFFFF" fill-rule="nonzero" transform="translate(183.318776, 160.468294) rotate(-54.290000) translate(-183.318776, -160.468294) " cx="183.318776" cy="160.468294" r="2.1"></circle>
            <circle id="Oval" fill="#FFFFFF" fill-rule="nonzero" transform="translate(180.305312, 164.447031) rotate(-51.430000) translate(-180.305312, -164.447031) " cx="180.305312" cy="164.447031" r="2.1"></circle>
            <circle id="Oval" fill="#FFFFFF" fill-rule="nonzero" transform="translate(177.097079, 168.270453) rotate(-48.570000) translate(-177.097079, -168.270453) " cx="177.097079" cy="168.270453" r="2.1"></circle>
            <circle id="Oval" fill="#FFFFFF" fill-rule="nonzero" transform="translate(173.702071, 171.929036) rotate(-45.710000) translate(-173.702071, -171.929036) " cx="173.702071" cy="171.929036" r="2.1"></circle>
            <circle id="Oval" fill="#FFFFFF" fill-rule="nonzero" transform="translate(170.141538, 175.401795) rotate(-42.860000) translate(-170.141538, -175.401795) " cx="170.141538" cy="175.401795" r="2.1"></circle>
            <circle id="Oval" fill="#FFFFFF" fill-rule="nonzero" transform="translate(166.399370, 178.704444) rotate(-40.000000) translate(-166.399370, -178.704444) " cx="166.39937" cy="178.704444" r="2.1"></circle>
            <circle id="Oval" fill="#FFFFFF" fill-rule="nonzero" transform="translate(162.497075, 181.816262) rotate(-37.140000) translate(-162.497075, -181.816262) " cx="162.497075" cy="181.816262" r="2.1"></circle>
            <circle id="Oval" fill="#FFFFFF" fill-rule="nonzero" transform="translate(158.458795, 184.719664) rotate(-34.290000) translate(-158.458795, -184.719664) " cx="158.458795" cy="184.719664" r="2.1"></circle>
            <circle id="Oval" fill="#FFFFFF" fill-rule="nonzero" transform="translate(154.266257, 187.427788) rotate(-31.430000) translate(-154.266257, -187.427788) " cx="154.266257" cy="187.427788" r="2.1"></circle>
            <circle id="Oval" fill="#FFFFFF" fill-rule="nonzero" transform="translate(149.943817, 189.923350) rotate(-28.570000) translate(-149.943817, -189.923350) " cx="149.943817" cy="189.92335" r="2.1"></circle>
            <circle id="Oval" fill="#FFFFFF" fill-rule="nonzero" transform="translate(145.502243, 192.200132) rotate(-25.710000) translate(-145.502243, -192.200132) " cx="145.502243" cy="192.200132" r="2.1"></circle>
            <circle id="Oval" fill="#FFFFFF" fill-rule="nonzero" transform="translate(140.968683, 194.245684) rotate(-22.860000) translate(-140.968683, -194.245684) " cx="140.968683" cy="194.245684" r="2.1"></circle>
            <circle id="Oval" fill="#FFFFFF" fill-rule="nonzero" transform="translate(136.322623, 196.069262) rotate(-20.000000) translate(-136.322623, -196.069262) " cx="136.322623" cy="196.069262" r="2.1"></circle>
            <circle id="Oval" fill="#FFFFFF" fill-rule="nonzero" transform="translate(131.591361, 197.658750) rotate(-17.140000) translate(-131.591361, -197.658750) " cx="131.591361" cy="197.65875" r="2.1"></circle>
            <circle id="Oval" fill="#FFFFFF" fill-rule="nonzero" transform="translate(126.803597, 199.005883) rotate(-14.290000) translate(-126.803597, -199.005883) " cx="126.803597" cy="199.005883" r="2.1"></circle>
            <circle id="Oval" fill="#FFFFFF" fill-rule="nonzero" transform="translate(121.937667, 200.116755) rotate(-11.430000) translate(-121.937667, -200.116755) " cx="121.937667" cy="200.116755" r="2.1"></circle>
            <circle id="Oval" fill="#FFFFFF" fill-rule="nonzero" transform="translate(117.022370, 200.983454) rotate(-8.570000) translate(-117.022370, -200.983454) " cx="117.02237" cy="200.983454" r="2.1"></circle>
            <circle id="Oval" fill="#FFFFFF" fill-rule="nonzero" transform="translate(112.069951, 201.603822) rotate(-5.710000) translate(-112.069951, -201.603822) " cx="112.069951" cy="201.603822" r="2.1"></circle>
            <circle id="Oval" fill="#FFFFFF" fill-rule="nonzero" transform="translate(107.110178, 201.975443) rotate(-2.860000) translate(-107.110178, -201.975443) " cx="107.110178" cy="201.975443" r="2.1"></circle>
            <line x1="87.1206088" y1="39.1" x2="70.1206088" y2="39.6" id="Path" stroke="#FFFFFF" fill="#FFFFFF" fill-rule="nonzero"></line>
            <line x1="89.1206088" y1="41.1" x2="52.1206088" y2="52.1" id="Path" stroke="#FFFFFF" fill="#FFFFFF" fill-rule="nonzero"></line>
            <line x1="91.1206088" y1="43.1" x2="38.1206088" y2="79.1" id="Path" stroke="#FFFFFF" fill="#FFFFFF" fill-rule="nonzero"></line>
            <line x1="92.1206088" y1="46.1" x2="32.1206088" y2="100.6" id="Path" stroke="#FFFFFF" fill="#FFFFFF" fill-rule="nonzero"></line>
            <line x1="92.1206088" y1="50.6" x2="35.1206088" y2="115.1" id="Path" stroke="#FFFFFF" fill="#FFFFFF" fill-rule="nonzero"></line>
            <line x1="94.1206088" y1="53.1" x2="39.6206088" y2="132.1" id="Path" stroke="#FFFFFF" fill="#FFFFFF" fill-rule="nonzero"></line>
            <line x1="95.1206088" y1="57.1" x2="56.1206088" y2="157.1" id="Path" stroke="#FFFFFF" fill="#FFFFFF" fill-rule="nonzero"></line>
            <line x1="98.6206088" y1="53.1" x2="67.1206088" y2="164.1" id="Path" stroke="#FFFFFF" fill="#FFFFFF" fill-rule="nonzero"></line>
            <line x1="101.120609" y1="51.6" x2="79.1206088" y2="162.1" id="Path" stroke="#FFFFFF" fill="#FFFFFF" fill-rule="nonzero"></line>
            <line x1="93.1206088" y1="157.1" x2="91.1206088" y2="172.6" id="Path" stroke="#FFFFFF" fill="#FFFFFF" fill-rule="nonzero"></line>
            <line x1="115.620609" y1="41.1" x2="134.120609" y2="42.6" id="Path" stroke="#FFFFFF" fill="#FFFFFF" fill-rule="nonzero"></line>
            <line x1="114.120609" y1="43.1" x2="156.120609" y2="60.1" id="Path" stroke="#FFFFFF" fill="#FFFFFF" fill-rule="nonzero"></line>
            <line x1="114.120609" y1="46.1" x2="168.120609" y2="79.1" id="Path" stroke="#FFFFFF" fill="#FFFFFF" fill-rule="nonzero"></line>
            <line x1="114.120609" y1="49.1" x2="171.120609" y2="96.1" id="Path" stroke="#FFFFFF" fill="#FFFFFF" fill-rule="nonzero"></line>
            <line x1="112.120609" y1="52.1" x2="170.120609" y2="116.1" id="Path" stroke="#FFFFFF" fill="#FFFFFF" fill-rule="nonzero"></line>
            <line x1="116.120609" y1="62.1" x2="167.120609" y2="129.1" id="Path" stroke="#FFFFFF" fill="#FFFFFF" fill-rule="nonzero"></line>
            <line x1="126.120609" y1="82.1" x2="160.120609" y2="141.1" id="Path" stroke="#FFFFFF" fill="#FFFFFF" fill-rule="nonzero"></line>
            <line x1="108.120609" y1="52.1" x2="149.120609" y2="155.1" id="Path" stroke="#FFFFFF" fill="#FFFFFF" fill-rule="nonzero"></line>
            <line x1="103.620609" y1="51.6" x2="133.620609" y2="160.6" id="Path" stroke="#FFFFFF" fill="#FFFFFF" fill-rule="nonzero"></line>
            <line x1="117.620609" y1="157.1" x2="118.120609" y2="169.6" id="Path" stroke="#FFFFFF" fill="#FFFFFF" fill-rule="nonzero"></line>
            <line x1="104.120609" y1="157.1" x2="104.620609" y2="173.1" id="Path" stroke="#FFFFFF" fill="#FFFFFF" fill-rule="nonzero"></line>
            <path d="M50.1206088,130.1 C47.1206088,133.1 44.6206088,134.1 44.6206088,139.1 C44.6206088,144.1 50.1206088,144.1 51.1206088,144.1 C52.1206088,144.1 56.1206088,143.1 56.1206088,148.6 C56.1206088,154.1 64.1206088,155.6 64.1206088,161.1 C64.6206088,164.1 65.1206088,156.1 63.1206088,154.1 C64.1206088,153.1 63.6206088,153.1 64.6206088,151.1 C65.6206088,152.1 72.6206088,158.1 73.6206088,158.1 C76.6206088,158.1 75.1206088,151.6 71.6206088,155.1 C70.1206088,153.6 70.1206088,150.6 68.1206088,150.6 C66.1206088,150.6 66.1206088,148.6 66.1206088,146.6 C66.1206088,144.6 66.1206088,138.1 52.1206088,138.1 C49.1206088,138.1 49.1206088,138.1 49.1206088,136.1 C49.1206088,134.1 50.1206088,132.1 50.1206088,131.1 L50.1206088,130.1 Z" id="Path" stroke="#FFFFFF" fill="#2C3E50" fill-rule="nonzero"></path>
            <path d="M54.6206088,56.6 L96.1206088,56.6 C99.1206088,56.6 101.120609,60.6 102.120609,61.6 C103.120609,60.6 105.120609,56.6 108.120609,56.6 L149.620609,56.6 L149.620609,145.6 L106.120609,145.6 C106.120609,147.6 98.1206088,147.6 98.1206088,145.6 L54.6206088,145.6 L54.6206088,56.6 Z" id="Path" stroke="#FFFFFF" fill="#2C3E50" fill-rule="nonzero"></path>
            <path d="M66.6206088,56.6 L66.6206088,138.6 L96.1206088,138.6 C99.1206088,138.6 101.120609,142.6 102.120609,143.6 C103.120609,142.6 105.120609,138.6 108.120609,138.6 L137.620609,138.6 L137.620609,56.6" id="Path" stroke="#FFFFFF"></path>
            <path d="M63.6206088,56.6 L63.6206088,140.35 L96.1206088,140.35 C99.1206088,140.35 101.120609,144.35 102.120609,145.35 C103.120609,144.35 105.120609,140.35 108.120609,140.35 L140.620609,140.35 L140.620609,56.6" id="Path" stroke="#FFFFFF"></path>
            <path d="M60.6206088,56.6 L60.6206088,142.1 L96.1206088,142.1 C99.1206088,142.1 101.120609,144.6 102.120609,145.6 C103.120609,144.6 105.120609,142.1 108.120609,142.1 L143.620609,142.1 L143.620609,56.6" id="Path" stroke="#FFFFFF"></path>
            <path d="M57.6206088,56.6 L57.6206088,143.85 L96.1206088,143.85 C99.1206088,143.85 101.120609,144.6 102.120609,145.6 C103.120609,144.6 105.120609,143.85 108.120609,143.85 L146.620609,143.85 L146.620609,56.6" id="Path" stroke="#FFFFFF"></path>
            <line x1="102.120609" y1="61.6" x2="102.120609" y2="143.6" id="Path" stroke="#FFFFFF" fill="#FFFFFF" fill-rule="nonzero"></line>
            <path d="M98.1206088,145.6 C98.1206088,139.6 106.120609,139.6 106.120609,145.6 C106.120609,147.6 98.1206088,147.6 98.1206088,145.6 Z" id="Path" stroke="#FFFFFF" fill="#2C3E50" fill-rule="nonzero"></path>
            <path d="M108.120609,60.75 L111.120609,60.75 M114.120609,60.75 L116.120609,60.75 M117.120609,60.75 L120.120609,60.75 M123.120609,60.75 L130.120609,60.75 M131.120609,60.75 L135.120609,60.75 M108.120609,63.95 L109.120609,63.95 M110.120609,63.95 L123.120609,63.95 M126.120609,63.95 L135.120609,63.95 M108.120609,67.15 L112.120609,67.15 M113.120609,67.15 L116.120609,67.15 M119.120609,67.15 L126.120609,67.15 M127.120609,67.15 L131.120609,67.15 M132.120609,67.15 L135.120609,67.15 M108.120609,70.35 L135.120609,70.35 M108.120609,73.55 L109.120609,73.55 M110.120609,73.55 L119.120609,73.55 M120.120609,73.55 L125.120609,73.55 M126.120609,73.55 L135.120609,73.55 M108.120609,76.75 L113.120609,76.75 M114.120609,76.75 L121.120609,76.75 M122.120609,76.75 L129.120609,76.75 M132.120609,76.75 L135.120609,76.75 M108.120609,79.95 L109.120609,79.95 M112.120609,79.95 L117.120609,79.95 M118.120609,79.95 L121.120609,79.95 M124.120609,79.95 L131.120609,79.95 M132.120609,79.95 L135.120609,79.95 M108.120609,83.15 L112.120609,83.15 M115.120609,83.15 L121.120609,83.15 M122.120609,83.15 L126.120609,83.15 M129.120609,83.15 L135.120609,83.15 M108.120609,86.35 L109.120609,86.35 M110.120609,86.35 L119.120609,86.35 M120.120609,86.35 L125.120609,86.35 M126.120609,86.35 L135.120609,86.35 M108.120609,89.55 L110.120609,89.55 M111.120609,89.55 L114.120609,89.55 M117.120609,89.55 L118.120609,89.55 M119.120609,89.55 L122.120609,89.55 M125.120609,89.55 L126.120609,89.55 M127.120609,89.55 L130.120609,89.55 M133.120609,89.55 L135.120609,89.55 M108.120609,92.75 L110.120609,92.75 M111.120609,92.75 L116.120609,92.75 M117.120609,92.75 L120.120609,92.75 M123.120609,92.75 L129.120609,92.75 M130.120609,92.75 L135.120609,92.75 M108.120609,95.95 L118.120609,95.95 M119.120609,95.95 L135.120609,95.95 M108.120609,99.15 L110.120609,99.15 M111.120609,99.15 L123.120609,99.15 M126.120609,99.15 L135.120609,99.15 M108.120609,102.35 L112.120609,102.35 M113.120609,102.35 L118.120609,102.35 M121.120609,102.35 L128.120609,102.35 M129.120609,102.35 L135.120609,102.35 M108.120609,105.55 L135.120609,105.55 M108.120609,108.75 L117.120609,108.75 M120.120609,108.75 L135.120609,108.75 M108.120609,111.95 L111.120609,111.95 M112.120609,111.95 L114.120609,111.95 M115.120609,111.95 L121.120609,111.95 M122.120609,111.95 L126.120609,111.95 M127.120609,111.95 L135.120609,111.95 M108.120609,115.15 L118.120609,115.15 M119.120609,115.15 L135.120609,115.15 M108.120609,118.35 L135.120609,118.35 M108.120609,121.55 L117.120609,121.55 M120.120609,121.55 L135.120609,121.55 M108.120609,124.75 L109.620609,124.75 M110.620609,124.75 L129.820609,124.75 M132.820609,124.75 L133.420609,124.75 M134.420609,124.75 L135.120609,124.75 M108.120609,127.95 L108.620609,127.95 M109.620609,127.95 L135.120609,127.95 M108.120609,131.15 L109.320609,131.15 M110.320609,131.15 L135.120609,131.15 M108.120609,134.35 L135.120609,134.35 M69.1206088,60.75 L72.1206088,60.75 M75.1206088,60.75 L79.1206088,60.75 M80.1206088,60.75 L85.1206088,60.75 M86.1206088,60.75 L91.1206088,60.75 M92.1206088,60.75 L96.1206088,60.75 M69.1206088,63.95 L87.1206088,63.95 M88.1206088,63.95 L96.1206088,63.95 M69.1206088,67.15 L84.1206088,67.15 M85.1206088,67.15 L90.1206088,67.15 M93.1206088,67.15 L96.1206088,67.15 M69.1206088,70.35 L87.1206088,70.35 M90.1206088,70.35 L96.1206088,70.35 M69.1206088,73.55 L96.1206088,73.55 M69.0206088,76.75 L72.0206088,76.75 M75.0206088,76.75 L79.0206088,76.75 M80.0206088,76.75 L84.0206088,76.75 M87.0206088,76.75 L94.0206088,76.75 M95.0206088,76.75 L96.0206088,76.75 M69.0206088,79.95 L74.0206088,79.95 M75.0206088,79.95 L90.0206088,79.95 M93.0206088,79.95 L96.0206088,79.95 M69.0206088,83.15 L73.0206088,83.15 M74.0206088,83.15 L77.0206088,83.15 M80.0206088,83.15 L87.0206088,83.15 M88.0206088,83.15 L93.0206088,83.15 M94.0206088,83.15 L96.0206088,83.15 M69.0206088,86.35 L71.0206088,86.35 M72.0206088,86.35 L75.0206088,86.35 M78.0206088,86.35 L79.5206088,86.35 M80.5206088,86.35 L83.5206088,86.35 M86.5206088,86.35 L87.5206088,86.35 M88.5206088,86.35 L92.5206088,86.35 M95.5206088,86.35 L96.0206088,86.35 M69.0206088,89.55 L96.0206088,89.55 M69.0206088,92.75 L75.0206088,92.75 M78.0206088,92.75 L86.0206088,92.75 M89.0206088,92.75 L94.0206088,92.75 M95.0206088,92.75 L96.0206088,92.75 M69.0206088,95.95 L71.0206088,95.95 M74.0206088,95.95 L81.0206088,95.95 M84.0206088,95.95 L90.0206088,95.95 M93.0206088,95.95 L96.0206088,95.95 M69.0206088,99.15 L96.0206088,99.15 M69.0206088,102.35 L74.0206088,102.35 M75.0206088,102.35 L84.0206088,102.35 M85.0206088,102.35 L93.0206088,102.35 M94.0206088,102.35 L96.0206088,102.35 M69.0206088,105.55 L80.0206088,105.55 M83.0206088,105.55 L96.0206088,105.55 M69.0206088,108.75 L79.0206088,108.75 M80.0206088,108.75 L88.0206088,108.75 M91.0206088,108.75 L96.0206088,108.75 M69.0206088,111.95 L74.0206088,111.95 M77.0206088,111.95 L94.0206088,111.95 M95.0206088,111.95 L96.0206088,111.95 M69.0206088,115.15 L71.0206088,115.15 M72.0206088,115.15 L77.0206088,115.15 M78.0206088,115.15 L81.0206088,115.15 M84.0206088,115.15 L92.0206088,115.15 M93.0206088,115.15 L96.0206088,115.15 M69.0206088,118.35 L72.0206088,118.35 M75.0206088,118.35 L83.0206088,118.35 M86.0206088,118.35 L91.0206088,118.35 M94.0206088,118.35 L96.0206088,118.35 M69.0206088,121.55 L76.0206088,121.55 M77.0206088,121.55 L82.0206088,121.55 M85.0206088,121.55 L92.0206088,121.55 M93.0206088,121.55 L96.0206088,121.55 M69.0206088,124.75 L78.0206088,124.75 M81.0206088,124.75 L86.0206088,124.75 M87.0206088,124.75 L94.0206088,124.75 M95.0206088,124.75 L96.0206088,124.75 M69.0206088,127.95 L78.5206088,127.95 M79.5206088,127.95 L80.5206088,127.95 M83.5206088,127.95 L84.5206088,127.95 M85.5206088,127.95 L86.5206088,127.95 M89.5206088,127.95 L90.5206088,127.95 M91.5206088,127.95 L92.5206088,127.95 M95.5206088,127.95 L96.0206088,127.95 M69.0206088,131.15 L96.0206088,131.15 M69.0206088,134.35 L96.0206088,134.35 M95.5206088,60.75 L96.0206088,60.75 C99.0206088,60.75 101.020609,64.75 102.020609,65.75 C103.020609,64.75 105.020609,60.75 108.020609,60.75 L108.520609,60.75 M95.5206088,63.95 L96.0206088,63.95 C99.0206088,63.95 101.020609,67.95 102.020609,68.95 C103.020609,67.95 105.020609,63.95 108.020609,63.95 L108.520609,63.95 M95.5206088,67.15 L96.0206088,67.15 C99.0206088,67.15 101.020609,71.15 102.020609,72.15 C103.020609,71.15 105.020609,67.15 108.020609,67.15 L108.520609,67.15 M95.5206088,70.35 L96.0206088,70.35 C99.0206088,70.35 101.020609,74.35 102.020609,75.35 C103.020609,74.35 105.020609,70.35 108.020609,70.35 L108.520609,70.35 M95.5206088,73.55 L96.0206088,73.55 C99.0206088,73.55 101.020609,77.55 102.020609,78.55 C103.020609,77.55 105.020609,73.55 108.020609,73.55 L108.520609,73.55 M95.5206088,76.75 L96.0206088,76.75 C99.0206088,76.75 101.020609,80.75 102.020609,81.75 C103.020609,80.75 105.020609,76.75 108.020609,76.75 L108.520609,76.75 M95.5206088,79.95 L96.0206088,79.95 C99.0206088,79.95 101.020609,83.95 102.020609,84.95 C103.020609,83.95 105.020609,79.95 108.020609,79.95 L108.520609,79.95 M95.5206088,83.15 L96.0206088,83.15 C99.0206088,83.15 101.020609,87.15 102.020609,88.15 C103.020609,87.15 105.020609,83.15 108.020609,83.15 L108.520609,83.15 M95.5206088,86.35 L96.0206088,86.35 C99.0206088,86.35 101.020609,90.35 102.020609,91.35 C103.020609,90.35 105.020609,86.35 108.020609,86.35 L108.520609,86.35 M95.5206088,89.55 L96.0206088,89.55 C99.0206088,89.55 101.020609,93.55 102.020609,94.55 C103.020609,93.55 105.020609,89.55 108.020609,89.55 L108.520609,89.55 M95.5206088,92.75 L96.0206088,92.75 C99.0206088,92.75 101.020609,96.75 102.020609,97.75 C103.020609,96.75 105.020609,92.75 108.020609,92.75 L108.520609,92.75 M95.5206088,95.95 L96.0206088,95.95 C99.0206088,95.95 101.020609,99.95 102.020609,100.95 C103.020609,99.95 105.020609,95.95 108.020609,95.95 L108.520609,95.95 M95.5206088,99.15 L96.0206088,99.15 C99.0206088,99.15 101.020609,103.15 102.020609,104.15 C103.020609,103.15 105.020609,99.15 108.020609,99.15 L108.520609,99.15 M95.5206088,102.35 L96.0206088,102.35 C99.0206088,102.35 101.020609,106.35 102.020609,107.35 C103.020609,106.35 105.020609,102.35 108.020609,102.35 L108.520609,102.35 M95.5206088,105.55 L96.0206088,105.55 C99.0206088,105.55 101.020609,109.55 102.020609,110.55 C103.020609,109.55 105.020609,105.55 108.020609,105.55 L108.520609,105.55 M95.5206088,108.75 L96.0206088,108.75 C99.0206088,108.75 101.020609,112.75 102.020609,113.75 C103.020609,112.75 105.020609,108.75 108.020609,108.75 L108.520609,108.75 M95.5206088,111.95 L96.0206088,111.95 C99.0206088,111.95 101.020609,115.95 102.020609,116.95 C103.020609,115.95 105.020609,111.95 108.020609,111.95 L108.520609,111.95 M95.5206088,115.15 L96.0206088,115.15 C99.0206088,115.15 101.020609,119.15 102.020609,120.15 C103.020609,119.15 105.020609,115.15 108.020609,115.15 L108.520609,115.15 M95.5206088,118.35 L96.0206088,118.35 C99.0206088,118.35 101.020609,122.35 102.020609,123.35 C103.020609,122.35 105.020609,118.35 108.020609,118.35 L108.520609,118.35 M95.5206088,121.55 L96.0206088,121.55 C99.0206088,121.55 101.020609,125.55 102.020609,126.55 C103.020609,125.55 105.020609,121.55 108.020609,121.55 L108.520609,121.55 M95.5206088,124.75 L96.0206088,124.75 C99.0206088,124.75 101.020609,128.75 102.020609,129.75 C103.020609,128.75 105.020609,124.75 108.020609,124.75 L108.520609,124.75 M95.5206088,127.95 L96.0206088,127.95 C99.0206088,127.95 101.020609,131.95 102.020609,132.95 C103.020609,131.95 105.020609,127.95 108.020609,127.95 L108.520609,127.95 M95.5206088,131.15 L96.0206088,131.15 C99.0206088,131.15 101.020609,135.15 102.020609,136.15 C103.020609,135.15 105.020609,131.15 108.020609,131.15 L108.520609,131.15 M95.5206088,134.35 L96.0206088,134.35 C99.0206088,134.35 101.020609,138.35 102.020609,139.35 C103.020609,138.35 105.020609,134.35 108.020609,134.35 L108.520609,134.35" id="Shape" stroke="#FFFFFF"></path>
            <g id="Group" transform="translate(69.620609, 63.950000)">
                <polygon id="Path" stroke="#2C3E50" stroke-width="4" fill="#2C3E50" fill-rule="nonzero" points="0 -7.10542736e-15 0 9.6 9.6 9.6 9.6 -7.10542736e-15"></polygon>
                <path d="M0,-7.10542736e-15 L0,9.6 L9.6,9.6 L9.6,-7.10542736e-15 L0,-7.10542736e-15 Z M1.5,8.5 L4.8,1.9 L8.1,8.5 M3.15,5.2 L6.45,5.2" id="Shape" stroke="#FFFFFF"></path>
            </g>
            <path d="M123.120609,147.1 C116.120609,142.1 117.120609,135.1 124.120609,134.1 L117.120609,132.1 C102.120609,138.1 108.120609,146.6 121.120609,147.1 L123.120609,147.1 Z" id="Path" stroke="#FFFFFF" fill="#2C3E50" fill-rule="nonzero"></path>
            <path d="M65.1206088,121.1 C70.1206088,121.1 72.1206088,124.1 75.1206088,127.1 C78.1206088,130.1 78.6206088,129.6 82.1206088,132.1 C85.6206088,134.6 86.6206088,138.1 91.1206088,144.1 C95.6206088,150.1 104.120609,151.1 106.120609,151.1 C108.120609,151.1 114.120609,151.6 116.120609,150.1 C118.120609,148.6 118.120609,145.6 121.620609,145.6 C125.120609,145.6 126.120609,150.6 126.120609,152.6 C126.120609,154.6 124.120609,166.6 104.120609,166.1 C84.1206088,165.6 79.1206088,153.1 75.6206088,148.1 C72.1206088,143.1 73.6206088,132.1 48.6206088,132.1 C48.6206088,130.1 49.1206088,129.1 49.1206088,127.1 C49.1206088,125.1 49.1206088,123.1 56.1206088,122.1 C63.1206088,121.1 60.1206088,121.1 65.1206088,121.1 Z" id="Path" stroke="#FFFFFF" fill="#2C3E50" fill-rule="nonzero"></path>
            <path d="M111.620609,130.1 C111.620609,132.1 112.620609,133.1 112.620609,134.1 C112.620609,135.1 115.620609,134.6 116.620609,135.6 C117.620609,136.6 136.620609,141.6 146.620609,141.6 C156.620609,141.6 159.620609,137.6 164.120609,127.6 C165.220609,125.1 164.120609,122.1 161.120609,118.6 C158.120609,115.1 155.620609,113.1 153.120609,113.1 C150.620609,113.1 144.120609,115.1 143.120609,115.6 C142.120609,116.1 133.120609,118.6 132.120609,112.1 C131.120609,105.6 139.620609,105.1 142.120609,107.1 C144.620609,109.1 147.620609,110.1 150.620609,110.1 C153.620609,110.1 156.620609,107.6 158.620609,105.6 C160.620609,103.6 165.120609,102.6 165.120609,99.1 C165.120609,95.6 163.120609,95.1 163.120609,92.1 C162.120609,90.1 164.120609,97.6 160.120609,98.6 C156.120609,99.6 156.620609,100.6 156.620609,100.6 C156.120609,97.6 158.620609,93.1 152.120609,91.1 C156.120609,86.1 147.120609,86.1 149.120609,91.1 L151.620609,94.1 C152.120609,95.1 152.620609,95.1 153.120609,98.6 C151.620609,99.6 151.620609,100.1 150.620609,102.1 C149.620609,104.1 143.620609,101.6 140.620609,103.1 C137.620609,104.6 137.620609,100.1 141.120609,99.6 C144.620609,99.1 143.620609,99.6 144.620609,98.1 C145.620609,96.6 141.620609,98.1 140.620609,97.1 C139.620609,96.1 137.620609,97.6 136.620609,98.1 C135.620609,98.6 129.120609,103.1 129.620609,110.1 C130.120609,117.1 131.120609,123.6 139.620609,123.1 C148.120609,122.6 151.120609,114.1 156.120609,119.1 C157.620609,120.6 156.120609,128.6 152.120609,128.6 C127.120609,128.6 132.120609,123.6 117.120609,123.6 C111.120609,123.6 111.620609,126.6 111.620609,128.6 L111.620609,130.1 Z" id="Path" stroke="#FFFFFF" fill="#2C3E50" fill-rule="nonzero"></path>
            <line x1="161.120609" y1="118.6" x2="156.120609" y2="119.1" id="Path" stroke="#FFFFFF" fill="#FFFFFF" fill-rule="nonzero"></line>
            <path d="M66.9806088,170.56 C71.2906088,157.35 71.8706088,159.27 74.8106088,162.91 C76.3306088,164.8 79.3206088,162.53 79.2306088,164.58 C79.0906088,167.78 76.3706088,169.22 75.5906088,178.13 C70.7206088,180.69 67.5806088,178.65 66.9706088,170.56 L66.9806088,170.56 Z" id="Path" stroke="#FFFFFF" fill="#2C3E50" fill-rule="nonzero"></path>
            <path d="M135.940609,179.57 C113.510609,184.85 125.730609,179.35 125.050609,175.22 C122.620609,160.39 124.170609,164.87 129.530609,162.58 C132.330609,161.39 135.410609,160.21 136.090609,162.1 C141.670609,183.98 142.060609,178.25 135.930609,179.57 L135.940609,179.57 Z" id="Path" stroke="#FFFFFF" fill="#2C3E50" fill-rule="nonzero"></path>
            <path d="M67.8806088,183.11 C42.5906088,177.38 72.0106088,171.62 71.2206088,168.27 C68.6206088,157.24 72.5706088,159.28 74.8106088,161.86 C76.4006088,163.7 79.3206088,162.54 79.2306088,164.59 C79.0906088,167.79 73.9906088,165.22 74.5306088,168.94 C75.6106088,181.57 80.8006088,187.19 67.8806088,183.11 Z" id="Path" stroke="#FFFFFF" fill="#2C3E50" fill-rule="nonzero"></path>
            <path d="M137.180609,182.58 C114.750609,187.86 132.710609,172.93 127.080609,168.62 C120.730609,163.76 124.790609,163.43 129.780609,162.21 C132.730609,161.49 135.410609,160.21 136.090609,162.1 C137.010609,164.65 134.040609,163.59 132.610609,167.42 C131.590609,170.14 162.100609,174.55 137.170609,182.58 L137.180609,182.58 Z" id="Path" stroke="#FFFFFF" fill="#2C3E50" fill-rule="nonzero"></path>
            <path d="M68.9806088,183.94 C69.0106088,180.62 74.6506088,174.08 74.1806088,173.19 C71.2406088,167.57 75.9306088,169.64 81.3506088,170.52 C84.8106088,171.08 96.6506088,174.47 102.190609,174.05 C103.590609,173.94 107.280609,174.67 111.880609,172.36 C120.210609,168.2 120.860609,172.04 125.480609,169.58 C130.690609,166.8 130.500609,170.09 130.630609,172.68 C130.800609,176.34 130.070609,172.84 131.240609,177.35 C131.870609,179.77 135.740609,180.54 135.120609,184.72 C134.480609,189.11 130.970609,189.82 120.230609,192.01 C110.610609,193.97 114.140609,194.71 102.850609,194.77 C94.0406088,194.82 96.8506088,192.24 79.4906088,192.03 C72.4406088,191.95 68.9306088,189.23 68.9906088,183.95 L68.9806088,183.94 Z" id="Path" stroke="#FFFFFF" fill="#2C3E50" fill-rule="nonzero"></path>
            <path d="M172.560609,47.03 C174.130609,51.3 177.130609,52 179.730609,55.65 C182.340609,59.3 185.370609,67.79 186.580609,71.64 C189.160609,79.86 192.550609,84.44 192.540609,92.28 C192.520609,101.53 193.010609,112.75 191.880609,116.06 C190.750609,119.37 187.710609,127.53 186.250609,136.91 C184.890609,145.64 177.300609,152.86 176.230609,154.09 C175.160609,155.32 172.030609,163.82 163.820609,170.24 C160.200609,173.07 155.020609,176.56 150.590609,179.78 C146.600609,182.68 144.710609,185.46 142.370609,185.13 C140.030609,184.8 138.430609,181.95 137.970609,178.35 C137.680609,176.1 137.240609,174.44 134.150609,170.77 C131.480609,167.6 130.760609,166.62 136.540609,165.95 C140.680609,165.47 146.440609,157.23 149.820609,156.17 C153.200609,155.11 160.040609,144.77 166.400609,131.07 C171.020609,121.09 173.680609,107.12 171.060609,88.88 C168.590609,71.68 165.230609,70.31 159.770609,62.04 C155.360609,55.36 152.250609,50.42 146.270609,47.24 C145.330609,46.74 142.650609,46.1 139.290609,42.97 C137.350609,41.16 134.470609,40.02 131.940609,38.56 C129.410609,37.1 112.090609,30.72 102.620609,30.45 C94.8106088,30.23 83.4106088,31.88 65.4706088,41.61 C59.3606088,44.93 53.4806088,49.89 45.8706088,58.49 C42.7306088,62.04 41.7806088,66.42 39.9906088,70.23 C39.0006088,72.35 37.1306088,74.05 35.9406088,75.92 C31.4206088,83.04 30.5106088,95.94 30.5006088,101.77 C30.4706088,111.57 34.1106088,118.6 34.2106088,123.29 C34.3706088,130.46 38.4406088,135.35 43.4806088,143.94 C46.4706088,149.04 52.6806088,154.85 56.2106088,157.21 C59.9406088,159.69 61.7606088,162.84 66.8206088,165.26 C75.2306088,169.28 68.6906088,170.5 67.3106088,174.72 C66.5506088,177.05 65.7406088,187.96 59.2906088,183.85 C56.1506088,181.85 50.8706088,179.22 45.9406088,175.16 C44.4506088,173.93 36.3406088,168.77 33.0706088,161.8 C32.0806088,159.69 27.3006088,154.66 23.1206088,148.12 C19.3706088,142.26 17.3806088,136.07 14.2706088,128.58 C11.1206088,120.98 11.3406088,109.59 10.6106088,101.8 C8.98060878,84.24 15.2306088,78.46 15.2306088,77.02 C15.2306088,72.02 20.1806088,60.01 21.8506088,57.77 C23.5206088,55.52 24.4706088,52.92 29.3706088,45.91 C30.4906088,44.31 40.0906088,35.86 44.6106088,31.55 C51.8206088,24.68 73.8306088,14.59 78.1306088,14.53 C84.9206088,14.43 89.3106088,11.38 99.6206088,10.81 C106.300609,10.44 121.920609,14.83 129.230609,16.32 C142.530609,19.03 141.250609,22.11 153.180609,28.6 C165.120609,35.08 170.090609,40.36 172.560609,47.06 L172.560609,47.03 Z" id="Path" stroke="#FFFFFF" fill-opacity="0" fill="#FFFFFF" fill-rule="nonzero"></path>
            <g id="Group" transform="translate(87.487659, 25.100000)" fill-rule="nonzero">
                <polygon id="Path" stroke="#FFFFFF" stroke-width="0.75" fill="#2C3E50" points="14.63295 0 19.0413 8.93235 28.89885 10.3647 21.7659 17.31765 23.4498 27.1353 14.63295 22.5 5.8161 27.1353 7.5 17.31765 0.36705 10.3647 10.2246 8.93235"></polygon>
                <polygon id="Path" fill="#FFFFFF" points="14.63295 15 14.63295 0 19.0413 8.93235"></polygon>
                <polygon id="Path" fill="#FFFFFF" points="14.63295 15 28.89885 10.3647 25.3323 13.84125"></polygon>
                <polygon id="Path" fill="#FFFFFF" points="14.63295 15 21.7659 17.31765 23.4498 27.1353"></polygon>
                <polygon id="Path" fill="#FFFFFF" points="14.63295 15 14.63295 22.5 5.8161 27.1353"></polygon>
                <polygon id="Path" fill="#FFFFFF" points="14.63295 15 0.36705 10.3647 10.2246 8.93235"></polygon>
            </g>
            <circle id="Oval" fill="#FFFFFF" fill-rule="nonzero" transform="translate(77.090232, 179.135578) rotate(18.000000) translate(-77.090232, -179.135578) " cx="77.0902322" cy="179.135578" r="2.1"></circle>
            <circle id="Oval" fill="#FFFFFF" fill-rule="nonzero" transform="translate(127.150985, 179.135578) rotate(-18.000000) translate(-127.150985, -179.135578) " cx="127.150985" cy="179.135578" r="2.1"></circle>
            <circle id="Oval" fill="#FFFFFF" fill-rule="nonzero" transform="translate(52.810933, 166.361621) rotate(37.500000) translate(-52.810933, -166.361621) " cx="52.810933" cy="166.361621" r="2.1"></circle>
            <circle id="Oval" fill="#FFFFFF" fill-rule="nonzero" transform="translate(151.430285, 166.361621) rotate(-37.500000) translate(-151.430285, -166.361621) " cx="151.430285" cy="166.361621" r="2.1"></circle>
            <circle id="Oval" fill="#FFFFFF" fill-rule="nonzero" transform="translate(21.813575, 112.672622) rotate(82.500000) translate(-21.813575, -112.672622) " cx="21.813575" cy="112.672622" r="2.1"></circle>
            <circle id="Oval" fill="#FFFFFF" fill-rule="nonzero" transform="translate(148.580300, 35.748684) rotate(-145.000000) translate(-148.580300, -35.748684) " cx="148.5803" cy="35.7486844" r="2.1"></circle>
            <circle id="Oval" fill="#FFFFFF" fill-rule="nonzero" transform="translate(107.065540, 21.251081) rotate(-176.500000) translate(-107.065540, -21.251081) " cx="107.06554" cy="21.2510813" r="2.1"></circle>
            <g id="Group" transform="translate(39.889643, 153.948886) rotate(-129.800000) translate(-39.889643, -153.948886) translate(34.389643, 147.948886)" fill="#FFFFFF" fill-rule="nonzero">
                <polygon id="Path" points="4.2 11.5 3.7 11.8 3.7 12 7.3 12 7.3 11.8 6.8 11.5 6.8 2.6 10.5 2.6 10.8 3.1 11 3.1 11 0 0 0 0 3.1 0.2 3.1 0.5 2.6 4.2 2.6"></polygon>
            </g>
            <g id="Group" transform="translate(31.482998, 141.739979) rotate(-119.300000) translate(-31.482998, -141.739979) translate(25.482998, 135.739979)" fill="#FFFFFF" fill-rule="nonzero">
                <polygon id="Path" points="0.5 11.5 0 11.8 0 12 3.6 12 3.6 11.8 3.1 11.5 3.1 0.5 3.6 0.2 3.6 0 0 0 0 0.2 0.5 0.5"></polygon>
                <polygon id="Path" points="11.5 11.5 12 11.8 12 12 8.4 12 8.4 11.8 8.9 11.5 8.9 0.5 8.4 0.2 8.4 0 12 0 12 0.2 11.5 0.5"></polygon>
                <polygon id="Path" points="1 4.7 1 7.3 11 7.3 11 4.7"></polygon>
            </g>
            <g id="Group" transform="translate(25.250956, 127.636621) rotate(-108.200000) translate(-25.250956, -127.636621) translate(20.500956, 121.636621)" fill="#FFFFFF" fill-rule="nonzero">
                <polygon id="Path" points="0.5 11.5 0 11.8 0 12 9.5 12 9.5 8.9 9.3 8.9 9 9.4 3.1 9.4 3.1 7.3 7.5 7.3 7.5 4.7 3.1 4.7 3.1 2.6 9 2.6 9.3 3.1 9.5 3.1 9.5 0 0 0 0 0.2 0.5 0.5"></polygon>
            </g>
            <g id="Group" transform="translate(20.448875, 98.248459) rotate(-87.300000) translate(-20.448875, -98.248459) translate(14.448875, 92.760959)">
                <path d="M1.8,0.25 L1.8,6.25 C1.8,12.55 10.2,12.55 10.2,6.25 L10.2,0.25" id="Path" stroke="#FFFFFF" stroke-width="2.6"></path>
                <polygon id="Path" fill="#FFFFFF" fill-rule="nonzero" points="0.5 0.75 0 0.45 0 0.25 3.6 0.25 3.6 0.45 3.1 0.75"></polygon>
                <polygon id="Path" fill="#FFFFFF" fill-rule="nonzero" points="11.5 0.75 12 0.45 12 0.25 8.4 0.25 8.4 0.45 8.9 0.75"></polygon>
            </g>
            <g id="Group" transform="translate(23.358645, 83.190926) rotate(-76.500000) translate(-23.358645, -83.190926) translate(17.358645, 77.190926)" fill="#FFFFFF" fill-rule="nonzero">
                <polygon id="Path" points="0.5 11.5 0 11.8 0 12 3.1 12 3.1 0 0 0 0 0.2 0.5 0.5"></polygon>
                <polygon id="Path" points="11.5 11.5 12 11.8 12 12 8.9 12 8.9 0 12 0 12 0.2 11.5 0.5"></polygon>
                <polygon id="Path" points="0.5 0 8.9 12 11.5 12 3.1 0"></polygon>
            </g>
            <g id="Group" transform="translate(26.913257, 72.019205) rotate(-68.200000) translate(-26.913257, -72.019205) translate(25.113257, 66.019205)" fill="#FFFFFF" fill-rule="nonzero">
                <polygon id="Path" points="0.5 11.5 0 11.8 0 12 3.6 12 3.6 11.8 3.1 11.5 3.1 0.5 3.6 0.2 3.6 0 0 0 0 0.2 0.5 0.5"></polygon>
            </g>
            <g id="Group" transform="translate(31.552290, 62.336796) rotate(-60.600000) translate(-31.552290, -62.336796) translate(24.552290, 56.336796)" fill="#FFFFFF" fill-rule="nonzero">
                <polygon id="Path" points="0 0 5.7 12 8.3 12 14 0 11.4 0 5.7 12 8.3 12 2.6 0"></polygon>
            </g>
            <g id="Group" transform="translate(39.910312, 50.225715) rotate(-50.000000) translate(-39.910312, -50.225715) translate(35.160312, 44.225715)" fill="#FFFFFF" fill-rule="nonzero">
                <polygon id="Path" points="0.5 11.5 0 11.8 0 12 9.5 12 9.5 8.9 9.3 8.9 9 9.4 3.1 9.4 3.1 7.3 7.5 7.3 7.5 4.7 3.1 4.7 3.1 2.6 9 2.6 9.3 3.1 9.5 3.1 9.5 0 0 0 0 0.2 0.5 0.5"></polygon>
            </g>
            <g id="Group" transform="translate(50.169951, 40.965478) rotate(-40.000000) translate(-50.169951, -40.965478) translate(44.669951, 35.490478)">
                <path d="M1.8,10.7 L1.8,0 L6,0 C11.5,0 11.5,4.7 6,4.7 L1.8,4.7 M5.5,4.7 L9.7,9.4" id="Shape" stroke="#FFFFFF" stroke-width="2.6"></path>
                <circle id="Oval" fill="#FFFFFF" fill-rule="nonzero" cx="9.7" cy="9.4" r="1.3"></circle>
                <polygon id="Path" fill="#FFFFFF" fill-rule="nonzero" points="0.5 10.2 0 10.5 0 10.7 3.6 10.7 3.6 10.5 3.1 10.2"></polygon>
            </g>
            <g id="Group" transform="translate(61.375993, 32.093741) rotate(-30.200000) translate(-61.375993, -32.093741) translate(56.375993, 27.393741)">
                <path d="M1.3,8 C1.3,8 0,9.4 5,9.4 C10,9.4 10,4.7 5,4.7 C0,4.7 0,0 5,0 C10,0 8.7,1.4 8.7,1.4" id="Path" stroke="#FFFFFF" stroke-width="2.6"></path>
                <circle id="Oval" fill="#FFFFFF" fill-rule="nonzero" cx="1.3" cy="8" r="1.3"></circle>
                <circle id="Oval" fill="#FFFFFF" fill-rule="nonzero" cx="8.7" cy="1.4" r="1.3"></circle>
            </g>
            <g id="Group" transform="translate(70.471387, 27.539107) rotate(-23.000000) translate(-70.471387, -27.539107) translate(68.671387, 21.539107)" fill="#FFFFFF" fill-rule="nonzero">
                <polygon id="Path" points="0.5 11.5 0 11.8 0 12 3.6 12 3.6 11.8 3.1 11.5 3.1 0.5 3.6 0.2 3.6 0 0 0 0 0.2 0.5 0.5"></polygon>
            </g>
            <g id="Group" transform="translate(80.201973, 24.121969) rotate(-15.700000) translate(-80.201973, -24.121969) translate(74.701973, 18.121969)" fill="#FFFFFF" fill-rule="nonzero">
                <polygon id="Path" points="4.2 11.5 3.7 11.8 3.7 12 7.3 12 7.3 11.8 6.8 11.5 6.8 2.6 10.5 2.6 10.8 3.1 11 3.1 11 0 0 0 0 3.1 0.2 3.1 0.5 2.6 4.2 2.6"></polygon>
            </g>
            <g id="Group" transform="translate(93.653803, 21.543726) rotate(-6.000000) translate(-93.653803, -21.543726) translate(87.653803, 15.543726)" fill="#FFFFFF" fill-rule="nonzero">
                <polygon id="Path" points="0 0 0 0.2 1 0.8 0.5 0 4.7 7.5 7.3 7.5 3.1 0 3.1 0.5 3.6 0.2 3.6 0"></polygon>
                <polygon id="Path" points="12 0 12 0.2 11 0.8 11.5 0 7.3 7.5 4.7 7.5 8.9 0 8.9 0.5 8.4 0.2 8.4 0"></polygon>
                <polygon id="Path" points="4.7 7.4 4.7 11.5 4.2 11.8 4.2 12 7.8 12 7.8 11.8 7.3 11.5 7.3 7.4"></polygon>
            </g>
            <g id="Group" transform="translate(122.264490, 23.644764) rotate(14.400000) translate(-122.264490, -23.644764) translate(117.564490, 18.944764)" stroke="#FFFFFF" stroke-width="2.6">
                <circle id="Oval" cx="4.7" cy="4.7" r="4.7"></circle>
            </g>
            <g id="Group" transform="translate(136.382525, 28.702564) rotate(25.200000) translate(-136.382525, -28.702564) translate(131.632525, 22.702564)" fill="#FFFFFF" fill-rule="nonzero">
                <polygon id="Path" points="0.5 11.5 0 11.8 0 12 3.6 12 3.6 11.8 3.1 11.5 3.1 7.8 8.5 7.8 8.5 5.2 3.1 5.2 3.1 2.6 9 2.6 9.3 3.1 9.5 3.1 9.5 0 0 0 0 0.2 0.5 0.5"></polygon>
            </g>
            <g id="Group" transform="translate(160.426656, 45.866426) rotate(45.400000) translate(-160.426656, -45.866426) translate(154.826656, 41.166426)">
                <circle id="Oval" stroke="#FFFFFF" stroke-width="2.6" cx="4.7" cy="4.7" r="4.7"></circle>
                <rect id="Rectangle" fill="#2C3E50" fill-rule="nonzero" x="4.7" y="2.7" width="6.5" height="4"></rect>
            </g>
            <g id="Group" transform="translate(169.034571, 56.454390) rotate(55.700000) translate(-169.034571, -56.454390) translate(162.534571, 50.454390)" fill="#FFFFFF" fill-rule="nonzero">
                <polygon id="Path" points="0.5 12 1 11.2 0 11.8 0 12 3.6 12 3.6 11.8 2.6 11.2 3.1 12 4 8.7 6.6 8.7 6.6 6.1 5.067 6.1 7.1 0 4 0 4 0.2 5 0.8 4.5 0"></polygon>
                <polygon id="Path" points="12.5 12 12 11.2 13 11.8 13 12 9.4 12 9.4 11.8 10.4 11.2 9.9 12 9 8.7 6.4 8.7 6.4 6.1 7.933 6.1 5.9 0 9 0 9 0.2 8 0.8 8.5 0"></polygon>
            </g>
            <g id="Group" transform="translate(176.472086, 69.960921) rotate(66.800000) translate(-176.472086, -69.960921) translate(171.222086, 63.960921)" fill="#FFFFFF" fill-rule="nonzero">
                <polygon id="Path" points="0.5 11.5 0 11.8 0 12 10.5 12 10.5 8.9 10.3 8.9 10 9.4 3.1 9.4 3.1 0 0 0 0 0.2 0.5 0.5"></polygon>
            </g>
            <g id="Group" transform="translate(179.864837, 79.365997) rotate(73.700000) translate(-179.864837, -79.365997) translate(178.064837, 73.365997)" fill="#FFFFFF" fill-rule="nonzero">
                <polygon id="Path" points="0.5 11.5 0 11.8 0 12 3.6 12 3.6 11.8 3.1 11.5 3.1 0.5 3.6 0.2 3.6 0 0 0 0 0.2 0.5 0.5"></polygon>
            </g>
            <g id="Group" transform="translate(182.193941, 89.880184) rotate(81.500000) translate(-182.193941, -89.880184) translate(177.443941, 83.880184)" fill="#FFFFFF" fill-rule="nonzero">
                <polygon id="Path" points="0.5 11.5 0 11.8 0 12 3.6 12 3.6 11.8 3.1 11.5 3.1 7.8 8.5 7.8 8.5 5.2 3.1 5.2 3.1 2.6 9 2.6 9.3 3.1 9.5 3.1 9.5 0 0 0 0 0.2 0.5 0.5"></polygon>
            </g>
            <g id="Group" transform="translate(183.102844, 103.796336) rotate(91.200000) translate(-183.102844, -103.796336) translate(178.402844, 99.096336)" stroke="#FFFFFF" stroke-width="2.6">
                <circle id="Oval" cx="4.7" cy="4.7" r="4.7"></circle>
            </g>
            <g id="Group" transform="translate(180.462740, 119.386154) rotate(102.800000) translate(-180.462740, -119.386154) translate(174.962740, 113.911154)">
                <path d="M1.8,10.7 L1.8,0 L6,0 C11.5,0 11.5,4.7 6,4.7 L1.8,4.7 M5.5,4.7 L9.7,9.4" id="Shape" stroke="#FFFFFF" stroke-width="2.6"></path>
                <circle id="Oval" fill="#FFFFFF" fill-rule="nonzero" cx="9.7" cy="9.4" r="1.3"></circle>
                <polygon id="Path" fill="#FFFFFF" fill-rule="nonzero" points="0.5 10.2 0 10.5 0 10.7 3.6 10.7 3.6 10.5 3.1 10.2"></polygon>
            </g>
            <g id="Group" transform="translate(175.768734, 135.818744) rotate(114.600000) translate(-175.768734, -135.818744) translate(169.768734, 129.818744)" fill="#FFFFFF" fill-rule="nonzero">
                <polygon id="Path" points="0.5 11.5 0 11.8 0 12 3.1 12 3.1 0 0 0 0 0.2 0.5 0.5"></polygon>
                <polygon id="Path" points="11.5 11.5 12 11.8 12 12 8.9 12 8.9 0 12 0 12 0.2 11.5 0.5"></polygon>
                <polygon id="Path" points="0.5 0 8.9 12 11.5 12 3.1 0"></polygon>
            </g>
            <g id="Group" transform="translate(170.052925, 146.215762) rotate(123.000000) translate(-170.052925, -146.215762) translate(168.252925, 140.215762)" fill="#FFFFFF" fill-rule="nonzero">
                <polygon id="Path" points="0.5 11.5 0 11.8 0 12 3.6 12 3.6 11.8 3.1 11.5 3.1 0.5 3.6 0.2 3.6 0 0 0 0 0.2 0.5 0.5"></polygon>
            </g>
            <g id="Group" transform="translate(163.066216, 155.453846) rotate(131.200000) translate(-163.066216, -155.453846) translate(156.566216, 149.453846)" fill="#FFFFFF" fill-rule="nonzero">
                <polygon id="Path" points="0.5 12 1 11.2 0 11.8 0 12 3.6 12 3.6 11.8 2.6 11.2 3.1 12 4 8.7 6.6 8.7 6.6 6.1 5.067 6.1 7.1 0 4 0 4 0.2 5 0.8 4.5 0"></polygon>
                <polygon id="Path" points="12.5 12 12 11.2 13 11.8 13 12 9.4 12 9.4 11.8 10.4 11.2 9.9 12 9 8.7 6.4 8.7 6.4 6.1 7.933 6.1 5.9 0 9 0 9 0.2 8 0.8 8.5 0"></polygon>
            </g>
            <g id="Group" transform="translate(83.850855, 181.012728) rotate(13.000000) translate(-83.850855, -181.012728) translate(82.000855, 175.012728)" fill="#FFFFFF" fill-rule="nonzero">
                <polygon id="Path" points="0.6 11.5 0.1 11.8 0.1 12 3.7 12 3.7 11.8 3.2 11.5 3.2 0 0 3.2 0.6 3.2"></polygon>
            </g>
            <g id="Group" transform="translate(92.951148, 182.579320) rotate(6.500000) translate(-92.951148, -182.579320) translate(89.451148, 177.879320)" stroke="#FFFFFF" stroke-width="2.6">
                <ellipse id="Oval" cx="3.5" cy="2.2" rx="2.5" ry="2.2"></ellipse>
                <ellipse id="Oval" cx="3.5" cy="6.9" rx="3.5" ry="2.5"></ellipse>
            </g>
            <g id="Group" transform="translate(105.337832, 183.015999) rotate(-2.100000) translate(-105.337832, -183.015999) translate(101.587832, 178.295544)" stroke="#FFFFFF" stroke-width="2.6">
                <ellipse id="Oval" cx="3.5" cy="6.94090838" rx="3.5" ry="2.5"></ellipse>
                <path d="M0,6.94090838 C0,-1.25909162 5.5,-0.759091621 7.5,1.24090838" id="Path"></path>
            </g>
            <g id="Group" transform="translate(117.298495, 181.665267) rotate(-10.800000) translate(-117.298495, -181.665267) translate(113.798495, 176.965267)" stroke="#FFFFFF" stroke-width="2.6">
                <ellipse id="Oval" cx="3.5" cy="2.2" rx="2.5" ry="2.2"></ellipse>
                <ellipse id="Oval" cx="3.5" cy="6.9" rx="3.5" ry="2.5"></ellipse>
            </g>
            <g id="Group" transform="translate(65.494039, 128.046274) rotate(23.000000) translate(-65.494039, -128.046274) translate(62.606539, 124.746274)" fill="#FFFFFF" fill-rule="nonzero">
                <polygon id="Path" points="0.275 6.325 0 6.49 0 6.6 5.775 6.6 5.775 4.895 5.665 4.895 5.5 5.17 1.705 5.17 1.705 0 0 0 0 0.11 0.275 0.275"></polygon>
            </g>
            <g id="Group" transform="translate(71.510796, 131.317250) rotate(37.000000) translate(-71.510796, -131.317250) translate(68.898296, 128.017250)" fill="#FFFFFF" fill-rule="nonzero">
                <polygon id="Path" points="0.275 6.325 0 6.49 0 6.6 5.225 6.6 5.225 4.895 5.115 4.895 4.95 5.17 1.705 5.17 1.705 4.015 4.125 4.015 4.125 2.585 1.705 2.585 1.705 1.43 4.95 1.43 5.115 1.705 5.225 1.705 5.225 0 0 0 0 0.11 0.275 0.275"></polygon>
            </g>
            <g id="Group" transform="translate(76.120609, 136.100000) rotate(54.000000) translate(-76.120609, -136.100000) translate(73.095609, 132.800000)" fill="#FFFFFF" fill-rule="nonzero">
                <polygon id="Path" points="2.31 6.325 2.035 6.49 2.035 6.6 4.015 6.6 4.015 6.49 3.74 6.325 3.74 1.43 5.775 1.43 5.94 1.705 6.05 1.705 6.05 0 0 0 0 1.705 0.11 1.705 0.275 1.43 2.31 1.43"></polygon>
            </g>
            <g id="Group" transform="translate(81.620609, 144.600000) rotate(55.000000) translate(-81.620609, -144.600000) translate(78.595609, 141.300000)" fill="#FFFFFF" fill-rule="nonzero">
                <polygon id="Path" points="2.31 6.325 2.035 6.49 2.035 6.6 4.015 6.6 4.015 6.49 3.74 6.325 3.74 1.43 5.775 1.43 5.94 1.705 6.05 1.705 6.05 0 0 0 0 1.705 0.11 1.705 0.275 1.43 2.31 1.43"></polygon>
            </g>
            <g id="Group" transform="translate(85.620609, 150.300000) rotate(50.000000) translate(-85.620609, -150.300000) translate(82.320609, 147.000000)" fill="#FFFFFF" fill-rule="nonzero">
                <polygon id="Path" points="0.275 6.325 0 6.49 0 6.6 1.98 6.6 1.98 6.49 1.705 6.325 1.705 0.275 1.98 0.11 1.98 0 0 0 0 0.11 0.275 0.275"></polygon>
                <polygon id="Path" points="6.325 6.325 6.6 6.49 6.6 6.6 4.62 6.6 4.62 6.49 4.895 6.325 4.895 0.275 4.62 0.11 4.62 0 6.6 0 6.6 0.11 6.325 0.275"></polygon>
                <polygon id="Path" points="0.55 2.585 0.55 4.015 6.05 4.015 6.05 2.585"></polygon>
            </g>
            <g id="Group" transform="translate(91.304002, 155.327136) rotate(32.000000) translate(-91.304002, -155.327136) translate(88.691502, 152.027136)" fill="#FFFFFF" fill-rule="nonzero">
                <polygon id="Path" points="0.275 6.325 0 6.49 0 6.6 5.225 6.6 5.225 4.895 5.115 4.895 4.95 5.17 1.705 5.17 1.705 4.015 4.125 4.015 4.125 2.585 1.705 2.585 1.705 1.43 4.95 1.43 5.115 1.705 5.225 1.705 5.225 0 0 0 0 0.11 0.275 0.275"></polygon>
            </g>
            <g id="Group" transform="translate(97.744658, 158.440551) rotate(15.000000) translate(-97.744658, -158.440551) translate(94.719658, 155.429301)">
                <path d="M0.99,5.885 L0.99,0 L3.3,0 C6.325,0 6.325,2.585 3.3,2.585 L0.99,2.585 M3.025,2.585 L5.335,5.17" id="Shape" stroke="#FFFFFF" stroke-width="1.43"></path>
                <circle id="Oval" fill="#FFFFFF" fill-rule="nonzero" cx="5.335" cy="5.17" r="1"></circle>
                <polygon id="Path" fill="#FFFFFF" fill-rule="nonzero" points="0.275 5.61 0 5.775 0 5.885 1.98 5.885 1.98 5.775 1.705 5.61"></polygon>
            </g>
            <g id="Group" transform="translate(104.483632, 159.088016) rotate(5.000000) translate(-104.483632, -159.088016) translate(101.871132, 155.788016)" fill="#FFFFFF" fill-rule="nonzero">
                <polygon id="Path" points="0.275 6.325 0 6.49 0 6.6 5.225 6.6 5.225 4.895 5.115 4.895 4.95 5.17 1.705 5.17 1.705 4.015 4.125 4.015 4.125 2.585 1.705 2.585 1.705 1.43 4.95 1.43 5.115 1.705 5.225 1.705 5.225 0 0 0 0 0.11 0.275 0.275"></polygon>
            </g>
            <g id="Group" transform="translate(113.542530, 157.793157) rotate(-22.000000) translate(-113.542530, -157.793157) translate(110.758155, 154.355657)">
                <path d="M0.99,4.1525 L0.99,0.8525 L3.3,0.8525 C6.325,0.8525 6.325,3.4375 3.3,3.4375 L0.99,3.4375 M0.99,2.7225 L0.99,6.0225 L3.3,6.0225 C6.325,6.0225 6.325,3.4375 3.3,3.4375 L0.99,3.4375" id="Shape" stroke="#FFFFFF" stroke-width="1.43"></path>
                <polygon id="Path" fill="#FFFFFF" fill-rule="nonzero" points="0.275 6.4625 0 6.6275 0 6.7375 0.99 6.7375"></polygon>
                <polygon id="Path" fill="#FFFFFF" fill-rule="nonzero" points="0.275 0.4125 0 0.2475 0 0.1375 0.99 0.1375"></polygon>
            </g>
            <g id="Group" transform="translate(120.004002, 154.472864) rotate(-32.000000) translate(-120.004002, -154.472864) translate(117.391502, 151.172864)" fill="#FFFFFF" fill-rule="nonzero">
                <polygon id="Path" points="0.275 6.325 0 6.49 0 6.6 5.225 6.6 5.225 4.895 5.115 4.895 4.95 5.17 1.705 5.17 1.705 4.015 4.125 4.015 4.125 2.585 1.705 2.585 1.705 1.43 4.95 1.43 5.115 1.705 5.225 1.705 5.225 0 0 0 0 0.11 0.275 0.275"></polygon>
            </g>
            <g id="Group" transform="translate(126.984447, 132.080864) rotate(8.000000) translate(-126.984447, -132.080864) translate(124.096947, 128.780864)" fill="#FFFFFF" fill-rule="nonzero">
                <polygon id="Path" points="0.275 6.325 0 6.49 0 6.6 5.775 6.6 5.775 4.895 5.665 4.895 5.5 5.17 1.705 5.17 1.705 0 0 0 0 0.11 0.275 0.275"></polygon>
            </g>
            <g id="Group" transform="translate(132.120609, 132.800000) rotate(10.000000) translate(-132.120609, -132.800000) translate(131.130609, 129.500000)" fill="#FFFFFF" fill-rule="nonzero">
                <polygon id="Path" points="0.275 6.325 0 6.49 0 6.6 1.98 6.6 1.98 6.49 1.705 6.325 1.705 0.275 1.98 0.11 1.98 0 0 0 0 0.11 0.275 0.275"></polygon>
            </g>
            <g id="Group" transform="translate(137.971759, 134.434989) rotate(8.000000) translate(-137.971759, -134.434989) translate(135.508389, 131.821850)">
                <path d="M4.21174108,0.716278952 C0.361741078,-2.30872105 -1.83825892,5.22627895 2.01174108,5.22627895 L3.93674108,5.22627895 L3.93674108,2.64127895" id="Path" stroke="#FFFFFF" stroke-width="1.43"></path>
                <polygon id="Path" fill="#FFFFFF" fill-rule="nonzero" points="3.22174108 2.91627895 2.94674108 2.75127895 2.94674108 2.64127895 4.92674108 2.64127895 4.92674108 2.75127895 4.65174108 2.91627895"></polygon>
            </g>
            <g id="Group" transform="translate(142.120609, 131.800000)" fill="#FFFFFF" fill-rule="nonzero">
                <polygon id="Path" points="0.275 6.325 0 6.49 0 6.6 1.98 6.6 1.98 6.49 1.705 6.325 1.705 0.275 1.98 0.11 1.98 0 0 0 0 0.11 0.275 0.275"></polygon>
                <polygon id="Path" points="6.325 6.325 6.6 6.49 6.6 6.6 4.62 6.6 4.62 6.49 4.895 6.325 4.895 0.275 4.62 0.11 4.62 0 6.6 0 6.6 0.11 6.325 0.275"></polygon>
                <polygon id="Path" points="0.55 2.585 0.55 4.015 6.05 4.015 6.05 2.585"></polygon>
            </g>
            <g id="Group" transform="translate(152.620609, 134.600000) rotate(-5.000000) translate(-152.620609, -134.600000) translate(149.595609, 131.300000)" fill="#FFFFFF" fill-rule="nonzero">
                <polygon id="Path" points="2.31 6.325 2.035 6.49 2.035 6.6 4.015 6.6 4.015 6.49 3.74 6.325 3.74 1.43 5.775 1.43 5.94 1.705 6.05 1.705 6.05 0 0 0 0 1.705 0.11 1.705 0.275 1.43 2.31 1.43"></polygon>
            </g>
        </g>
    </g>
</svg>